# xmcd
#
# Track frame offsets:
#	150
#	20617
#	33741
#	49436
#	65757
#	84273
#	109841
#	123688
#	146400
#	166069
#	181288
#	206140
#	229578
#
# Disc length: 3312 seconds
#
# Revision: 1
# Processed by: cddbd v1.4PL0 Copyright (c) Steve Scherf et al.
# Submitted via: audiograbber 1.81.02
#
DISCID=ba0cee0d
DTITLE=Divin' Ducks - brewed and bottled
DYEAR=1998
DGENRE=Blues
TTITLE0=Chasing fire with fire
TTITLE1=Nothing to do
TTITLE2=It ain't just for fun
TTITLE3=Knockin' me to the floor
TTITLE4=Made in a hurry
TTITLE5=Theme for an imaginary western
TTITLE6=Backfire blues
TTITLE7=Tubesnake boogie
TTITLE8=The woman I'm lovin'
TTITLE9=Well educated woman
TTITLE10=Rock 'n' roll man
TTITLE11=Queen of Sheba
TTITLE12=Roll over Beethoven
EXTD=
EXTT0=
EXTT1=
EXTT2=
EXTT3=
EXTT4=
EXTT5=
EXTT6=
EXTT7=
EXTT8=
EXTT9=
EXTT10=
EXTT11=
EXTT12=
PLAYORDER=
